<?xml version="1.0" encoding="utf-8"?>
<!-- Generator: Adobe Illustrator 19.2.1, SVG Export Plug-In . SVG Version: 6.00 Build 0)  -->
<svg version="1.1" id="Слой_1" xmlns="http://www.w3.org/2000/svg" xmlns:xlink="http://www.w3.org/1999/xlink" x="0px" y="0px"
	 viewBox="0 0 145 40" style="enable-background:new 0 0 145 40;" xml:space="preserve">
<style type="text/css">
	.st0{fill:#FFFFFF;}
	.st1{fill:#EF3E47;}
</style>
<g>
	<path class="st0" d="M61.4,22.6c0,1.1-0.5,2-1.3,2.7c-0.8,0.7-1.8,1.1-2.9,1.1c-1,0-1.9-0.2-2.6-0.6c-0.9-0.5-1.5-1.2-1.8-2.2
		c-0.1-0.3,0-0.6,0.1-0.8c0.2-0.3,0.4-0.4,0.7-0.5c0.3-0.1,0.6,0,0.8,0.1c0.3,0.2,0.4,0.4,0.5,0.7c0.1,0.4,0.4,0.7,0.9,0.9
		c0.4,0.2,0.9,0.3,1.5,0.3c0.6,0,1.1-0.2,1.5-0.5c0.4-0.3,0.6-0.8,0.7-1.3c0-0.3-0.1-0.6-0.3-0.8c-0.4-0.4-1-0.6-1.9-0.6h0
		c0,0,0,0,0,0c0,0,0,0,0,0c-1.5,0-2.6-0.4-3.4-1.3c-0.6-0.7-0.9-1.5-0.9-2.4c0-1.1,0.5-2,1.3-2.8c0.8-0.7,1.8-1.1,2.9-1.1
		c1,0,1.9,0.2,2.6,0.6c0.9,0.5,1.5,1.2,1.8,2.2c0.1,0.3,0,0.6-0.1,0.8c-0.1,0.3-0.4,0.4-0.6,0.5c-0.3,0.1-0.6,0-0.8-0.1
		c-0.3-0.2-0.4-0.4-0.5-0.7c-0.1-0.4-0.4-0.7-0.9-0.9c-0.4-0.2-0.9-0.3-1.5-0.3c-0.6,0-1.1,0.2-1.5,0.5c-0.4,0.4-0.6,0.8-0.6,1.3
		c0,0.3,0.1,0.6,0.3,0.9c0.4,0.4,1,0.6,1.9,0.6h0c1.5,0,2.6,0.5,3.4,1.3C61.2,20.9,61.5,21.7,61.4,22.6z"/>
	<path class="st0" d="M85.7,26.5c-0.3,0-0.5-0.1-0.8-0.3c-0.2-0.2-0.3-0.5-0.3-0.8V14.6c0-0.3,0.1-0.5,0.3-0.8
		c0.2-0.2,0.5-0.3,0.8-0.3c0.3,0,0.5,0.1,0.8,0.3c0.2,0.2,0.3,0.5,0.3,0.8v10.8c0,0.3-0.1,0.5-0.3,0.8C86.2,26.4,86,26.5,85.7,26.5z
		"/>
	<path class="st0" d="M98.1,15.6h-2.7c-0.3,0-0.5-0.1-0.8-0.3c-0.2-0.2-0.3-0.5-0.3-0.8c0-0.3,0.1-0.5,0.3-0.8
		c0.2-0.2,0.5-0.3,0.8-0.3h7.5c0.3,0,0.5,0.1,0.8,0.3c0.2,0.2,0.3,0.5,0.3,0.8c0,0.3-0.1,0.5-0.3,0.8c-0.2,0.2-0.5,0.3-0.8,0.3h-2.7
		v9.8c0,0.3-0.1,0.5-0.3,0.8c-0.2,0.2-0.5,0.3-0.8,0.3c-0.3,0-0.5-0.1-0.8-0.3c-0.2-0.2-0.3-0.5-0.3-0.8V15.6z"/>
	<path class="st0" d="M120.2,13.8c0.2,0.2,0.4,0.4,0.4,0.7c0,0.3,0,0.6-0.2,0.8l-3.9,4.9v5.2c0,0.3-0.1,0.5-0.3,0.8
		c-0.2,0.2-0.5,0.3-0.8,0.3s-0.5-0.1-0.8-0.3c-0.2-0.2-0.3-0.5-0.3-0.8v-5.2l-3.9-4.9c-0.2-0.2-0.3-0.5-0.2-0.8
		c0-0.3,0.2-0.5,0.4-0.7c0.2-0.2,0.5-0.3,0.8-0.2c0.3,0,0.5,0.2,0.7,0.4l3.3,4.2l3.3-4.2c0.2-0.2,0.4-0.4,0.7-0.4
		C119.8,13.5,120,13.6,120.2,13.8z"/>
</g>
<g>
	<path class="st0" d="M133,13.5c0.4,0,0.7,0.2,0.9,0.5c0.2,0.3,0.3,0.6,0.1,1l-4.2,10.9c-0.1,0.2-0.2,0.4-0.4,0.5
		c-0.2,0.1-0.4,0.2-0.6,0.2c-0.1,0-0.3,0-0.4-0.1c-0.3-0.1-0.5-0.3-0.6-0.6c-0.1-0.3-0.1-0.5,0-0.8l3.6-9.4h-4
		c-0.3,0-0.5-0.1-0.8-0.3c-0.2-0.2-0.3-0.5-0.3-0.8c0-0.3,0.1-0.5,0.3-0.8c0.2-0.2,0.5-0.3,0.8-0.3H133z"/>
</g>
<path class="st0" d="M142.6,14.9l-3.3,8.5c-0.2,0.5-0.8,0.8-1.4,0.6l0,0c-0.5-0.2-0.8-0.8-0.6-1.4l3.3-8.5c0.2-0.5,0.8-0.8,1.4-0.6
	v0C142.5,13.7,142.8,14.4,142.6,14.9z"/>
<path class="st0" d="M143.9,24.1l-5.6,0c-0.6,0-1.1-0.5-1.1-1.1v0c0-0.6,0.5-1.1,1.1-1.1l5.6,0c0.6,0,1.1,0.5,1.1,1.1v0
	C145,23.6,144.5,24.1,143.9,24.1z"/>
<path class="st0" d="M71.9,14.1L67.7,25c-0.2,0.5,0.1,1.2,0.6,1.4l0,0c0.5,0.2,1.2-0.1,1.4-0.6l4.2-10.9c0.2-0.5-0.1-1.2-0.6-1.4
	l0,0C72.8,13.3,72.1,13.6,71.9,14.1z"/>
<path class="st0" d="M73.9,14.1L78.1,25c0.2,0.5-0.1,1.2-0.6,1.4v0c-0.5,0.2-1.2-0.1-1.4-0.6l-4.2-10.9c-0.2-0.5,0.1-1.2,0.6-1.4v0
	C73.1,13.3,73.7,13.6,73.9,14.1z"/>
<g>
	<g>
		<g>
			<path class="st0" d="M17.5,13.5c0.4,0,0.7,0.2,0.9,0.5c0.2,0.3,0.3,0.6,0.1,1l-4.2,11c-0.1,0.2-0.2,0.4-0.4,0.5
				c-0.2,0.1-0.4,0.2-0.6,0.2c-0.1,0-0.3,0-0.4-0.1c-0.3-0.1-0.5-0.3-0.6-0.6c-0.1-0.3-0.1-0.6,0-0.8l3.7-9.5h-4
				c-0.3,0-0.6-0.1-0.8-0.3c-0.2-0.2-0.3-0.5-0.3-0.8c0-0.3,0.1-0.6,0.3-0.8c0.2-0.2,0.5-0.3,0.8-0.3H17.5z"/>
		</g>
		<path class="st0" d="M26.3,14.9L23,23.5c-0.2,0.6-0.8,0.8-1.4,0.6l0,0c-0.6-0.2-0.8-0.8-0.6-1.4l3.3-8.5c0.2-0.6,0.8-0.8,1.4-0.6
			h0C26.2,13.7,26.5,14.4,26.3,14.9z"/>
	</g>
	<path class="st0" d="M27.6,24.2l-5.6,0c-0.6,0-1.1-0.5-1.1-1.1v0c0-0.6,0.5-1.1,1.1-1.1l5.6,0c0.6,0,1.1,0.5,1.1,1.1v0
		C28.7,23.7,28.2,24.2,27.6,24.2z"/>
</g>
<path class="st1" d="M19.7,2.6c9.6,0,17.4,7.8,17.4,17.4s-7.8,17.4-17.4,17.4S2.4,29.6,2.4,20S10.2,2.6,19.7,2.6 M19.7,0.3
	C8.8,0.3,0,9.1,0,20s8.8,19.7,19.7,19.7S39.5,30.9,39.5,20S30.6,0.3,19.7,0.3L19.7,0.3z"/>
</svg>
