<svg xmlns="http://www.w3.org/2000/svg" xmlns:xlink="http://www.w3.org/1999/xlink" preserveAspectRatio="xMidYMid" width="53.969" height="54" viewBox="0 0 53.969 54">
  <defs>
    <style>
      .cls-1 {
        fill: #d2d7d7;
        fill-rule: evenodd;
      }
    </style>
  </defs>
  <path d="M26.986,53.997 C12.077,53.997 -0.010,41.911 -0.010,27.002 C-0.010,12.093 12.077,0.006 26.986,0.006 C41.895,0.006 53.981,12.093 53.981,27.002 C53.981,41.911 41.895,53.997 26.986,53.997 ZM26.986,3.257 C13.893,3.257 3.241,13.909 3.241,27.002 C3.241,40.095 13.893,50.747 26.986,50.747 C40.079,50.747 50.731,40.095 50.731,27.002 C50.731,13.909 40.079,3.257 26.986,3.257 ZM37.772,32.745 L30.076,32.749 C29.266,32.749 28.604,32.087 28.603,31.278 C28.603,31.272 28.606,31.268 28.606,31.263 C28.598,31.069 28.627,30.871 28.701,30.678 L33.204,18.997 C33.495,18.241 34.351,17.861 35.107,18.153 C35.862,18.444 36.242,19.300 35.951,20.055 L32.193,29.804 L37.770,29.801 C38.580,29.801 39.242,30.463 39.243,31.272 C39.243,32.082 38.581,32.745 37.772,32.745 ZM19.469,35.095 C19.361,35.386 19.178,35.619 18.920,35.794 C18.671,35.960 18.396,36.043 18.097,36.043 C17.914,36.043 17.735,36.010 17.560,35.943 C17.186,35.794 16.916,35.536 16.749,35.170 C16.583,34.796 16.575,34.417 16.725,34.035 L21.727,21.061 L16.200,21.061 C15.793,21.061 15.448,20.916 15.165,20.625 C14.874,20.342 14.729,19.997 14.729,19.590 C14.729,19.182 14.874,18.833 15.165,18.542 C15.448,18.259 15.793,18.118 16.200,18.118 L23.885,18.118 C24.400,18.118 24.804,18.330 25.095,18.754 C25.394,19.178 25.448,19.631 25.257,20.113 L19.469,35.095 Z" class="cls-1"/>
</svg>
