<svg xmlns="http://www.w3.org/2000/svg" xmlns:xlink="http://www.w3.org/1999/xlink" preserveAspectRatio="xMidYMid" width="125.969" height="17.62" viewBox="0 0 125.969 17.62">
  <defs>
    <style>
      .cls-1 {
        fill: #d2d7d7;
        fill-rule: evenodd;
      }
    </style>
  </defs>
  <path d="M124.503,14.380 L116.882,14.383 C116.846,14.383 116.813,14.375 116.778,14.373 C116.722,14.369 116.668,14.367 116.612,14.356 C116.569,14.348 116.529,14.334 116.487,14.322 C116.444,14.310 116.400,14.303 116.357,14.287 C116.348,14.283 116.340,14.278 116.331,14.274 C116.299,14.261 116.269,14.242 116.238,14.227 C116.181,14.199 116.124,14.172 116.073,14.138 C116.060,14.129 116.048,14.117 116.035,14.108 C115.971,14.062 115.910,14.015 115.855,13.960 C115.845,13.950 115.837,13.938 115.827,13.928 C115.774,13.872 115.723,13.814 115.680,13.750 C115.657,13.717 115.640,13.680 115.620,13.645 C115.595,13.601 115.567,13.558 115.547,13.511 C115.526,13.464 115.513,13.412 115.497,13.362 C115.484,13.323 115.469,13.285 115.460,13.245 C115.450,13.201 115.447,13.154 115.442,13.108 C115.435,13.058 115.427,13.008 115.426,12.957 C115.426,12.950 115.424,12.942 115.424,12.935 C115.424,12.899 115.432,12.865 115.435,12.830 C115.438,12.776 115.441,12.722 115.451,12.668 C115.460,12.622 115.475,12.580 115.487,12.536 C115.499,12.495 115.505,12.454 115.521,12.413 L119.980,0.912 C120.268,0.169 121.116,-0.205 121.864,0.081 C122.612,0.368 122.989,1.211 122.700,1.955 L119.006,11.484 L124.502,11.481 C125.303,11.481 125.960,12.133 125.960,12.930 C125.961,13.727 125.305,14.379 124.503,14.380 ZM105.174,16.700 C105.066,16.986 104.885,17.215 104.630,17.387 C104.383,17.551 104.111,17.633 103.814,17.633 C103.633,17.633 103.456,17.600 103.283,17.535 C102.913,17.387 102.645,17.134 102.480,16.773 C102.316,16.405 102.308,16.032 102.456,15.656 L107.409,2.883 L101.937,2.883 C101.533,2.883 101.191,2.740 100.912,2.454 C100.623,2.175 100.479,1.835 100.479,1.434 C100.479,1.033 100.623,0.689 100.912,0.403 C101.191,0.124 101.533,-0.015 101.937,-0.015 L109.546,-0.015 C110.057,-0.015 110.456,0.194 110.745,0.611 C111.041,1.029 111.095,1.475 110.906,1.950 L105.174,16.700 ZM87.030,9.073 L87.030,16.184 C87.030,16.585 86.886,16.929 86.597,17.215 C86.318,17.494 85.976,17.633 85.572,17.633 C85.169,17.633 84.827,17.494 84.547,17.215 C84.259,16.929 84.115,16.585 84.115,16.184 L84.115,9.073 L78.766,2.417 C78.510,2.106 78.407,1.749 78.457,1.348 C78.498,0.955 78.675,0.636 78.988,0.390 C79.301,0.137 79.659,0.030 80.063,0.071 C80.458,0.120 80.783,0.300 81.039,0.611 L85.572,6.261 L90.118,0.611 C90.365,0.300 90.687,0.120 91.082,0.071 C91.485,0.030 91.844,0.137 92.157,0.390 C92.470,0.636 92.651,0.955 92.700,1.348 C92.741,1.749 92.634,2.106 92.379,2.417 L87.030,9.073 ZM68.541,2.896 L64.859,2.896 L64.859,16.184 C64.859,16.585 64.715,16.929 64.427,17.215 C64.147,17.494 63.805,17.633 63.402,17.633 C62.998,17.633 62.656,17.494 62.376,17.215 C62.088,16.929 61.943,16.585 61.943,16.184 L61.943,2.896 L58.275,2.896 C57.871,2.896 57.525,2.753 57.237,2.466 C56.957,2.188 56.817,1.848 56.817,1.446 C56.817,1.045 56.957,0.706 57.237,0.427 C57.525,0.141 57.871,-0.003 58.275,-0.003 L68.541,-0.003 C68.936,-0.003 69.277,0.141 69.566,0.427 C69.846,0.706 69.986,1.045 69.986,1.446 C69.986,1.848 69.846,2.188 69.566,2.466 C69.277,2.753 68.936,2.896 68.541,2.896 ZM44.937,17.633 C44.533,17.633 44.191,17.490 43.911,17.203 C43.623,16.925 43.479,16.585 43.479,16.184 L43.479,1.532 C43.479,1.131 43.623,0.792 43.911,0.513 C44.191,0.227 44.533,0.083 44.937,0.083 C45.340,0.083 45.682,0.227 45.962,0.513 C46.250,0.792 46.394,1.131 46.394,1.532 L46.394,16.184 C46.394,16.585 46.250,16.925 45.962,17.203 C45.682,17.490 45.340,17.633 44.937,17.633 ZM31.905,16.683 L27.549,5.447 L23.193,16.683 C22.904,17.427 22.056,17.801 21.308,17.514 C20.560,17.228 20.184,16.385 20.472,15.641 L26.183,0.912 C26.335,0.519 26.645,0.234 27.013,0.091 C27.019,0.088 27.024,0.084 27.031,0.081 C27.048,0.075 27.065,0.073 27.082,0.068 C27.146,0.046 27.210,0.027 27.277,0.015 C27.317,0.007 27.356,0.003 27.396,-0.001 C27.447,-0.006 27.497,-0.011 27.549,-0.011 C27.601,-0.011 27.651,-0.006 27.702,-0.001 C27.742,0.003 27.781,0.007 27.821,0.015 C27.888,0.027 27.952,0.046 28.017,0.068 C28.033,0.074 28.050,0.075 28.067,0.081 L28.067,0.081 C28.073,0.084 28.079,0.088 28.085,0.091 C28.453,0.234 28.763,0.520 28.915,0.912 L34.625,15.641 C34.914,16.385 34.538,17.228 33.790,17.514 C33.041,17.801 32.193,17.427 31.905,16.683 ZM5.945,7.391 L6.007,7.391 C8.025,7.423 9.569,8.005 10.640,9.134 C11.521,10.060 11.932,11.145 11.875,12.389 C11.809,13.855 11.220,15.095 10.108,16.110 C8.988,17.125 7.654,17.633 6.106,17.633 C4.763,17.633 3.561,17.347 2.499,16.773 C1.222,16.086 0.411,15.087 0.065,13.777 C-0.034,13.392 0.016,13.028 0.213,12.684 C0.419,12.340 0.716,12.119 1.103,12.021 C1.490,11.922 1.856,11.971 2.202,12.168 C2.548,12.373 2.771,12.667 2.869,13.052 C3.018,13.601 3.421,14.031 4.080,14.342 C4.673,14.612 5.348,14.747 6.106,14.747 C6.880,14.747 7.543,14.506 8.095,14.022 C8.655,13.548 8.951,12.958 8.984,12.254 C9.001,11.828 8.848,11.448 8.527,11.112 C8.016,10.571 7.160,10.293 5.958,10.277 L5.945,10.277 C5.912,10.277 5.904,10.277 5.921,10.277 C5.912,10.277 5.904,10.277 5.896,10.277 C3.878,10.244 2.334,9.667 1.263,8.545 C0.382,7.612 -0.030,6.527 0.028,5.290 C0.094,3.817 0.683,2.572 1.795,1.557 C2.906,0.542 4.240,0.034 5.797,0.034 C7.139,0.034 8.342,0.321 9.404,0.894 C10.681,1.582 11.492,2.581 11.838,3.890 C11.937,4.275 11.883,4.640 11.677,4.983 C11.480,5.327 11.187,5.548 10.800,5.647 C10.413,5.745 10.047,5.696 9.701,5.499 C9.355,5.295 9.132,5.000 9.034,4.615 C8.885,4.067 8.478,3.637 7.811,3.325 C7.226,3.055 6.555,2.920 5.797,2.920 C5.023,2.920 4.356,3.162 3.796,3.645 C3.244,4.128 2.952,4.717 2.919,5.413 C2.902,5.839 3.055,6.224 3.376,6.568 C3.886,7.100 4.743,7.374 5.945,7.391 Z" class="cls-1"/>
</svg>
